<mxfile host="Electron" agent="Mozilla/5.0 (X11; Linux x86_64) AppleWebKit/537.36 (KHTML, like Gecko) draw.io/26.1.1 Chrome/132.0.6834.210 Electron/34.3.3 Safari/537.36" version="26.1.1">
  <diagram name="Page-1" id="XM7-aIxjZmprBUIhkywy">
    <mxGraphModel dx="1381" dy="1949" grid="1" gridSize="10" guides="1" tooltips="1" connect="1" arrows="1" fold="1" page="1" pageScale="1" pageWidth="850" pageHeight="1100" math="0" shadow="0">
      <root>
        <mxCell id="0" />
        <mxCell id="1" parent="0" />
        <mxCell id="hz254em3IhEHtkerivp4-16" style="edgeStyle=orthogonalEdgeStyle;rounded=0;orthogonalLoop=1;jettySize=auto;html=1;" parent="1" source="FeYfbZaVq7cGIxNbT0wz-30" target="hz254em3IhEHtkerivp4-13" edge="1">
          <mxGeometry relative="1" as="geometry" />
        </mxCell>
        <mxCell id="hz254em3IhEHtkerivp4-28" style="edgeStyle=none;rounded=0;orthogonalLoop=1;jettySize=auto;html=1;entryX=0;entryY=0.233;entryDx=0;entryDy=0;entryPerimeter=0;" parent="1" source="FeYfbZaVq7cGIxNbT0wz-30" target="hz254em3IhEHtkerivp4-24" edge="1">
          <mxGeometry relative="1" as="geometry">
            <mxPoint x="130" y="-720.0025" as="sourcePoint" />
            <mxPoint x="156.1290322580644" y="-267.19" as="targetPoint" />
            <Array as="points">
              <mxPoint x="120" y="-745" />
              <mxPoint x="120" y="-670" />
              <mxPoint x="120" y="-283" />
            </Array>
          </mxGeometry>
        </mxCell>
        <mxCell id="FeYfbZaVq7cGIxNbT0wz-30" value="Пользователь" style="swimlane;fontStyle=0;childLayout=stackLayout;horizontal=1;startSize=30;horizontalStack=0;resizeParent=1;resizeParentMax=0;resizeLast=0;collapsible=1;marginBottom=0;whiteSpace=wrap;html=1;" parent="1" vertex="1">
          <mxGeometry x="210" y="-790" width="140" height="90" as="geometry" />
        </mxCell>
        <mxCell id="FeYfbZaVq7cGIxNbT0wz-32" value="ФИО" style="text;strokeColor=none;fillColor=none;align=left;verticalAlign=middle;spacingLeft=4;spacingRight=4;overflow=hidden;points=[[0,0.5],[1,0.5]];portConstraint=eastwest;rotatable=0;whiteSpace=wrap;html=1;" parent="FeYfbZaVq7cGIxNbT0wz-30" vertex="1">
          <mxGeometry y="30" width="140" height="30" as="geometry" />
        </mxCell>
        <mxCell id="FeYfbZaVq7cGIxNbT0wz-33" value="email" style="text;strokeColor=none;fillColor=none;align=left;verticalAlign=middle;spacingLeft=4;spacingRight=4;overflow=hidden;points=[[0,0.5],[1,0.5]];portConstraint=eastwest;rotatable=0;whiteSpace=wrap;html=1;" parent="FeYfbZaVq7cGIxNbT0wz-30" vertex="1">
          <mxGeometry y="60" width="140" height="30" as="geometry" />
        </mxCell>
        <mxCell id="hz254em3IhEHtkerivp4-11" style="edgeStyle=orthogonalEdgeStyle;rounded=0;orthogonalLoop=1;jettySize=auto;html=1;" parent="1" source="FeYfbZaVq7cGIxNbT0wz-37" target="hz254em3IhEHtkerivp4-10" edge="1">
          <mxGeometry relative="1" as="geometry">
            <Array as="points">
              <mxPoint x="390" y="-505" />
              <mxPoint x="390" y="-350" />
              <mxPoint x="485" y="-350" />
              <mxPoint x="485" y="-185" />
            </Array>
          </mxGeometry>
        </mxCell>
        <mxCell id="hz254em3IhEHtkerivp4-17" style="edgeStyle=orthogonalEdgeStyle;rounded=0;orthogonalLoop=1;jettySize=auto;html=1;" parent="1" source="FeYfbZaVq7cGIxNbT0wz-37" target="hz254em3IhEHtkerivp4-13" edge="1">
          <mxGeometry relative="1" as="geometry" />
        </mxCell>
        <mxCell id="FeYfbZaVq7cGIxNbT0wz-37" value="Турнир/Игра" style="swimlane;fontStyle=0;childLayout=stackLayout;horizontal=1;startSize=30;horizontalStack=0;resizeParent=1;resizeParentMax=0;resizeLast=0;collapsible=1;marginBottom=0;whiteSpace=wrap;html=1;" parent="1" vertex="1">
          <mxGeometry x="210" y="-550" width="140" height="90" as="geometry" />
        </mxCell>
        <mxCell id="FeYfbZaVq7cGIxNbT0wz-38" value="Название" style="text;strokeColor=none;fillColor=none;align=left;verticalAlign=middle;spacingLeft=4;spacingRight=4;overflow=hidden;points=[[0,0.5],[1,0.5]];portConstraint=eastwest;rotatable=0;whiteSpace=wrap;html=1;" parent="FeYfbZaVq7cGIxNbT0wz-37" vertex="1">
          <mxGeometry y="30" width="140" height="30" as="geometry" />
        </mxCell>
        <mxCell id="FeYfbZaVq7cGIxNbT0wz-39" value="кол-во боев" style="text;strokeColor=none;fillColor=none;align=left;verticalAlign=middle;spacingLeft=4;spacingRight=4;overflow=hidden;points=[[0,0.5],[1,0.5]];portConstraint=eastwest;rotatable=0;whiteSpace=wrap;html=1;" parent="FeYfbZaVq7cGIxNbT0wz-37" vertex="1">
          <mxGeometry y="60" width="140" height="30" as="geometry" />
        </mxCell>
        <mxCell id="hz254em3IhEHtkerivp4-9" style="edgeStyle=orthogonalEdgeStyle;rounded=0;orthogonalLoop=1;jettySize=auto;html=1;" parent="1" source="hz254em3IhEHtkerivp4-1" target="hz254em3IhEHtkerivp4-7" edge="1">
          <mxGeometry relative="1" as="geometry" />
        </mxCell>
        <mxCell id="hz254em3IhEHtkerivp4-1" value="Бой" style="swimlane;fontStyle=0;childLayout=stackLayout;horizontal=1;startSize=30;horizontalStack=0;resizeParent=1;resizeParentMax=0;resizeLast=0;collapsible=1;marginBottom=0;whiteSpace=wrap;html=1;" parent="1" vertex="1">
          <mxGeometry x="550" y="-290" width="140" height="120" as="geometry" />
        </mxCell>
        <mxCell id="hz254em3IhEHtkerivp4-2" value="Название" style="text;strokeColor=none;fillColor=none;align=left;verticalAlign=middle;spacingLeft=4;spacingRight=4;overflow=hidden;points=[[0,0.5],[1,0.5]];portConstraint=eastwest;rotatable=0;whiteSpace=wrap;html=1;" parent="hz254em3IhEHtkerivp4-1" vertex="1">
          <mxGeometry y="30" width="140" height="30" as="geometry" />
        </mxCell>
        <mxCell id="hz254em3IhEHtkerivp4-3" value="дата проведения" style="text;strokeColor=none;fillColor=none;align=left;verticalAlign=middle;spacingLeft=4;spacingRight=4;overflow=hidden;points=[[0,0.5],[1,0.5]];portConstraint=eastwest;rotatable=0;whiteSpace=wrap;html=1;" parent="hz254em3IhEHtkerivp4-1" vertex="1">
          <mxGeometry y="60" width="140" height="30" as="geometry" />
        </mxCell>
        <mxCell id="hz254em3IhEHtkerivp4-10" value="Турнир/Игра" style="text;strokeColor=none;fillColor=none;align=left;verticalAlign=middle;spacingLeft=4;spacingRight=4;overflow=hidden;points=[[0,0.5],[1,0.5]];portConstraint=eastwest;rotatable=0;whiteSpace=wrap;html=1;" parent="hz254em3IhEHtkerivp4-1" vertex="1">
          <mxGeometry y="90" width="140" height="30" as="geometry" />
        </mxCell>
        <mxCell id="hz254em3IhEHtkerivp4-4" value="Участник боя" style="swimlane;fontStyle=0;childLayout=stackLayout;horizontal=1;startSize=30;horizontalStack=0;resizeParent=1;resizeParentMax=0;resizeLast=0;collapsible=1;marginBottom=0;whiteSpace=wrap;html=1;" parent="1" vertex="1">
          <mxGeometry x="580" y="-440" width="140" height="90" as="geometry" />
        </mxCell>
        <mxCell id="hz254em3IhEHtkerivp4-5" value="Пользователь" style="text;strokeColor=none;fillColor=none;align=left;verticalAlign=middle;spacingLeft=4;spacingRight=4;overflow=hidden;points=[[0,0.5],[1,0.5]];portConstraint=eastwest;rotatable=0;whiteSpace=wrap;html=1;" parent="hz254em3IhEHtkerivp4-4" vertex="1">
          <mxGeometry y="30" width="140" height="30" as="geometry" />
        </mxCell>
        <mxCell id="hz254em3IhEHtkerivp4-7" value="Бой" style="text;strokeColor=none;fillColor=none;align=left;verticalAlign=middle;spacingLeft=4;spacingRight=4;overflow=hidden;points=[[0,0.5],[1,0.5]];portConstraint=eastwest;rotatable=0;whiteSpace=wrap;html=1;" parent="hz254em3IhEHtkerivp4-4" vertex="1">
          <mxGeometry y="60" width="140" height="30" as="geometry" />
        </mxCell>
        <mxCell id="hz254em3IhEHtkerivp4-8" style="edgeStyle=orthogonalEdgeStyle;rounded=0;orthogonalLoop=1;jettySize=auto;html=1;" parent="1" source="FeYfbZaVq7cGIxNbT0wz-33" target="hz254em3IhEHtkerivp4-5" edge="1">
          <mxGeometry relative="1" as="geometry" />
        </mxCell>
        <mxCell id="hz254em3IhEHtkerivp4-12" value="Рейтинг" style="swimlane;fontStyle=0;childLayout=stackLayout;horizontal=1;startSize=30;horizontalStack=0;resizeParent=1;resizeParentMax=0;resizeLast=0;collapsible=1;marginBottom=0;whiteSpace=wrap;html=1;" parent="1" vertex="1">
          <mxGeometry x="490" y="-670" width="210" height="90" as="geometry" />
        </mxCell>
        <mxCell id="hz254em3IhEHtkerivp4-13" value="Пользователь или Турнир" style="text;strokeColor=none;fillColor=none;align=left;verticalAlign=middle;spacingLeft=4;spacingRight=4;overflow=hidden;points=[[0,0.5],[1,0.5]];portConstraint=eastwest;rotatable=0;whiteSpace=wrap;html=1;" parent="hz254em3IhEHtkerivp4-12" vertex="1">
          <mxGeometry y="30" width="210" height="30" as="geometry" />
        </mxCell>
        <mxCell id="hz254em3IhEHtkerivp4-15" value="Теущее значение рейтинга" style="text;strokeColor=none;fillColor=none;align=left;verticalAlign=middle;spacingLeft=4;spacingRight=4;overflow=hidden;points=[[0,0.5],[1,0.5]];portConstraint=eastwest;rotatable=0;whiteSpace=wrap;html=1;" parent="hz254em3IhEHtkerivp4-12" vertex="1">
          <mxGeometry y="60" width="210" height="30" as="geometry" />
        </mxCell>
        <mxCell id="hz254em3IhEHtkerivp4-20" value="" style="endArrow=none;html=1;rounded=0;curved=1;strokeColor=default;strokeWidth=2;startFill=0;" parent="1" edge="1">
          <mxGeometry width="50" height="50" relative="1" as="geometry">
            <mxPoint x="150" y="-620" as="sourcePoint" />
            <mxPoint x="470" y="-790" as="targetPoint" />
            <Array as="points">
              <mxPoint x="330" y="-630" />
              <mxPoint x="470" y="-750" />
            </Array>
          </mxGeometry>
        </mxCell>
        <mxCell id="hz254em3IhEHtkerivp4-22" value="" style="endArrow=none;html=1;rounded=0;curved=1;startFill=0;strokeWidth=2;" parent="1" edge="1">
          <mxGeometry width="50" height="50" relative="1" as="geometry">
            <mxPoint x="650" y="-510" as="sourcePoint" />
            <mxPoint x="550" y="-790" as="targetPoint" />
            <Array as="points">
              <mxPoint x="320" y="-590" />
            </Array>
          </mxGeometry>
        </mxCell>
        <mxCell id="hz254em3IhEHtkerivp4-23" value="Уведомление" style="swimlane;fontStyle=0;childLayout=stackLayout;horizontal=1;startSize=30;horizontalStack=0;resizeParent=1;resizeParentMax=0;resizeLast=0;collapsible=1;marginBottom=0;whiteSpace=wrap;html=1;" parent="1" vertex="1">
          <mxGeometry x="170" y="-320" width="140" height="90" as="geometry" />
        </mxCell>
        <mxCell id="hz254em3IhEHtkerivp4-24" value="Получатель" style="text;strokeColor=none;fillColor=none;align=left;verticalAlign=middle;spacingLeft=4;spacingRight=4;overflow=hidden;points=[[0,0.5],[1,0.5]];portConstraint=eastwest;rotatable=0;whiteSpace=wrap;html=1;" parent="hz254em3IhEHtkerivp4-23" vertex="1">
          <mxGeometry y="30" width="140" height="30" as="geometry" />
        </mxCell>
        <mxCell id="hz254em3IhEHtkerivp4-29" value="Текст сообщения" style="text;strokeColor=none;fillColor=none;align=left;verticalAlign=middle;spacingLeft=4;spacingRight=4;overflow=hidden;points=[[0,0.5],[1,0.5]];portConstraint=eastwest;rotatable=0;whiteSpace=wrap;html=1;" parent="hz254em3IhEHtkerivp4-23" vertex="1">
          <mxGeometry y="60" width="140" height="30" as="geometry" />
        </mxCell>
        <mxCell id="hz254em3IhEHtkerivp4-32" value="" style="endArrow=none;html=1;rounded=0;curved=1;startFill=0;strokeWidth=2;" parent="1" edge="1">
          <mxGeometry width="50" height="50" relative="1" as="geometry">
            <mxPoint x="430" y="-50" as="sourcePoint" />
            <mxPoint x="50" y="-420" as="targetPoint" />
            <Array as="points">
              <mxPoint x="370" y="-420" />
            </Array>
          </mxGeometry>
        </mxCell>
        <mxCell id="hz254em3IhEHtkerivp4-33" value="" style="endArrow=none;html=1;rounded=0;curved=1;startFill=0;strokeWidth=2;" parent="1" edge="1">
          <mxGeometry width="50" height="50" relative="1" as="geometry">
            <mxPoint x="540" y="-100" as="sourcePoint" />
            <mxPoint x="750" y="-440" as="targetPoint" />
            <Array as="points">
              <mxPoint x="-270" y="-830" />
            </Array>
          </mxGeometry>
        </mxCell>
      </root>
    </mxGraphModel>
  </diagram>
</mxfile>
